<?xml version="1.0" encoding="UTF-8"?> <svg xmlns="http://www.w3.org/2000/svg" width="53" height="49" viewBox="0 0 53 49" fill="none"> <path d="M49.9316 18.7101C49.2342 19.6126 48.8161 20.626 48.6525 21.8014C48.6014 22.182 48.5743 22.577 48.5743 22.9911C48.5743 24.0285 47.7317 24.8711 46.6944 24.8711C45.6586 24.8711 44.8152 24.0285 44.8152 22.9911C44.8152 22.8052 44.8248 22.6209 44.8423 22.4429C44.9596 21.2141 45.4759 20.1943 46.3257 19.5376C47.071 18.9639 48.0525 18.6718 49.1887 18.6718C49.4305 18.6718 49.6779 18.6838 49.9316 18.7101Z" fill="#EE3338"></path> <path d="M39.3161 35.8679C39.0304 36.622 38.811 37.1981 38.9243 37.7088V37.7112C38.9474 37.8046 38.9801 37.8947 39.024 37.9849C39.5315 38.9967 39.7709 40.1505 39.7709 43.9727C39.7709 45.6715 38.5828 46.2764 37.4672 46.2764H33.8773C32.9963 46.2764 32.3301 45.6125 32.3301 44.7291C32.3301 44.1267 32.3301 43.3024 32.8407 42.514C33.0362 42.2084 33.3107 41.9068 33.689 41.6267C33.9563 41.4296 34.0656 41.0833 33.9619 40.7689C33.8581 40.4537 33.5645 40.2407 33.2317 40.2407C31.3374 40.2407 29.491 38.1229 29.1183 35.5184C29.0585 35.0979 28.6691 34.8059 28.2501 34.8657C27.8296 34.9248 27.5384 35.315 27.5974 35.7355C27.6206 35.9022 27.6517 36.0674 27.6836 36.2302C27.7817 36.7066 27.9198 37.1654 28.0914 37.6011C25.9888 37.6873 24.1591 37.1447 22.5241 35.9501C22.2919 35.7818 21.9799 35.7562 21.7229 35.8863C21.466 36.0172 21.3024 36.2829 21.3024 36.5701V44.7291C21.3024 45.5837 20.6098 46.2764 19.7552 46.2764H16.4972C15.7216 46.2764 15.0768 45.7026 14.9675 44.9582C14.9635 44.9286 14.9595 44.8983 14.9579 44.8696C14.9523 44.8233 14.95 44.7754 14.95 44.7291C14.95 43.865 15.163 43.2354 15.5835 42.8596C15.9083 42.5675 16.3823 42.3928 16.9943 42.3385C17.4188 42.301 17.73 41.9284 17.6917 41.5054C17.6917 41.5022 17.6917 41.5007 17.6893 41.4967C17.6534 41.128 17.359 40.8455 17.0023 40.8088C16.9568 40.8048 16.9065 40.8048 16.8578 40.8088C16.4381 40.8471 16.0519 40.9301 15.7008 41.0546V34.3455C16.1285 34.4252 16.5626 34.4891 17.0023 34.533C17.5864 34.5968 18.1769 34.6271 18.7761 34.6271H18.7857C22.2935 34.6255 25.5914 33.589 28.46 31.7689C31.3278 29.9488 33.7656 27.3475 35.5514 24.2179C37.784 24.4214 39.2602 26.1761 39.8651 28.0824C39.9337 28.3042 39.9935 28.5284 40.0398 28.751C40.2218 29.6288 40.2968 30.4291 40.3007 31.1608L40.063 33.4813C39.8595 34.4372 39.5619 35.224 39.3161 35.8679Z" fill="#F5D394"></path> <path d="M39.8642 28.0819C38.3744 26.214 36.2862 26.6728 33.4671 29.626C30.0486 33.2104 25.4756 35.3193 20.5994 35.3193H20.597C18.8901 35.3193 17.2432 35.0544 15.7 34.5573V34.345C16.6982 34.531 17.7251 34.6267 18.7752 34.6267H18.7848C22.2926 34.6251 25.5905 33.5878 28.4591 31.7685C31.327 29.9483 33.7647 27.347 35.5505 24.2175C37.7832 24.421 39.2594 26.1757 39.8642 28.0819Z" fill="white"></path> <path d="M11.9385 42.5839C11.9385 45.6688 9.43691 48.168 6.35364 48.168C3.26877 48.168 0.768799 45.6688 0.768799 42.5839C0.768799 41.5993 1.02414 40.6728 1.47339 39.8693C2.42614 38.1561 4.25344 36.9991 6.35364 36.9991C8.60145 36.9991 10.5429 38.3293 11.4254 40.2467C11.7557 40.9577 11.9385 41.7485 11.9385 42.5839Z" fill="#EE3338"></path> <path d="M6.48931 44.0881C4.45295 44.0881 2.69666 42.8919 1.88276 41.1644C1.81413 41.4532 1.77344 41.7541 1.77344 42.0645C1.77344 44.2133 3.51616 45.9561 5.66503 45.9561C7.42849 45.9561 8.91587 44.7823 9.39384 43.1744C8.56956 43.7489 7.56973 44.0881 6.48931 44.0881Z" fill="#FFC32D"></path> <path d="M2.0346 43.9841C2.0346 40.9 4.53537 38.3992 7.61943 38.3992C8.92089 38.3992 10.1178 38.8461 11.0674 39.5922C10.0771 38.0338 8.33599 36.9988 6.35229 36.9988C3.26822 36.9988 0.767456 39.4996 0.767456 42.5837C0.767456 44.3663 1.60371 45.9534 2.90436 46.9756C2.35457 46.1106 2.0346 45.0852 2.0346 43.9841Z" fill="white"></path> <path d="M6.35246 48.9365C2.84947 48.9365 0 46.0871 0 42.5841C0 40.8334 0.733314 39.1425 2.01163 37.9464C2.32043 37.6559 2.80718 37.6719 3.09684 37.9815C3.38649 38.2911 3.37053 38.7771 3.06093 39.0667C2.07786 39.9875 1.53605 41.2371 1.53605 42.5841C1.53605 45.2396 3.69689 47.4005 6.35246 47.4005C9.00883 47.4005 11.1697 45.2396 11.1697 42.5841C11.1697 41.3879 10.7284 40.2421 9.92727 39.3548C9.6432 39.0404 9.66794 38.5544 9.98233 38.2704C10.2975 37.9863 10.7835 38.011 11.0675 38.3254C12.1232 39.4952 12.7049 41.0065 12.7049 42.5841C12.7049 46.0871 9.85545 48.9365 6.35246 48.9365Z" fill="#2D3448"></path> <path d="M3.93229 43.1877C3.93229 43.5284 3.6562 43.8037 3.31628 43.8037C2.97555 43.8037 2.69946 43.5284 2.69946 43.1877C2.69946 42.847 2.97555 42.5717 3.31628 42.5717C3.6562 42.5717 3.93229 42.847 3.93229 43.1877Z" fill="white"></path> <path d="M17.0014 34.5321V40.8079C16.9551 40.804 16.9057 40.804 16.857 40.8079C16.4365 40.8462 16.051 40.9292 15.7 41.0537V34.3446C16.1277 34.4244 16.5617 34.4882 17.0014 34.5321Z" fill="white"></path> <path d="M14.1636 33.9854V35.6523C12.8733 35.7481 11.6357 36.6274 10.9542 37.2051C10.8425 37.2985 10.6965 37.4278 10.5377 37.5794C10.5082 37.5315 10.4818 37.4852 10.4491 37.4389C10.2433 37.1557 9.97115 36.9115 9.65437 36.7687C9.58335 36.7368 9.50435 36.7232 9.42376 36.7383H9.42216C9.40301 36.7407 9.38705 36.7439 9.3703 36.7503C9.2147 36.7958 9.10697 36.9283 9.08383 37.0783C9.07984 37.0942 9.07825 37.111 9.07984 37.1269C9.07665 37.1684 9.08224 37.2131 9.095 37.257L9.11096 37.3105C9.11655 37.3312 9.12213 37.3512 9.13011 37.3719C9.19714 37.6041 9.25459 37.8076 9.29529 38.0135C9.34157 38.2321 9.37588 38.4491 9.39264 38.6582C9.40062 38.7635 9.4086 38.8593 9.40461 38.9423C9.40062 39.054 9.39264 39.1673 9.37748 39.2766C9.34716 39.4969 9.2913 39.7147 9.2123 39.9198C8.89552 40.7512 8.17417 41.4095 7.33314 41.6489C6.91501 41.7686 6.47135 41.7973 6.03328 41.7263C5.5976 41.6529 5.16751 41.4861 4.78928 41.2428C4.65522 41.1558 4.52675 41.0616 4.40706 40.9579C4.23311 40.8087 4.07512 40.6395 3.93946 40.4592C3.64103 40.0634 3.44952 39.607 3.40723 39.1442C3.40324 39.0915 3.39766 39.042 3.39766 38.9902L3.39526 38.9136L3.39766 38.8218C3.40564 38.7005 3.40165 38.5776 3.41681 38.4571C3.43037 38.3358 3.43835 38.213 3.4575 38.0917L3.52294 37.7286C3.62268 37.245 3.78785 36.7711 3.99692 36.3122C4.41743 35.393 5.03345 34.544 5.75878 33.7979C6.48252 33.0462 7.32516 32.3983 8.23322 31.8948C8.49096 31.7512 8.75348 31.6243 9.02079 31.5086C9.407 31.7831 9.80598 32.044 10.2145 32.2866C11.4418 33.0119 12.7664 33.5865 14.1636 33.9854Z" fill="#F5D394"></path> <path d="M3.94001 40.459C3.64237 40.0632 3.45007 39.6068 3.40778 39.144C3.40459 39.0913 3.3982 39.0418 3.3982 38.99L3.39661 38.9134L3.3982 38.8208C3.40618 38.7003 3.40219 38.5774 3.41815 38.4561C3.43092 38.3356 3.4389 38.2128 3.45805 38.0915L3.52348 37.7284C3.62322 37.2449 3.7884 36.7709 3.99746 36.312C4.41798 35.392 5.034 34.5438 5.76013 33.7969C6.48387 33.046 7.3265 32.3973 8.23456 31.8946C8.4915 31.751 8.75483 31.6241 9.02134 31.5084C9.40755 31.7829 9.80732 32.0438 10.2159 32.2864C6.72724 33.2136 3.50752 37.7037 3.94001 40.459Z" fill="white"></path> <path d="M31.7918 44.87C31.2994 45.4724 30.5949 46.0518 29.915 46.0518H27.7438C26.4647 46.0518 25.4305 45.016 25.4305 43.7369C25.4305 41.3957 26.8589 40.9768 27.3967 40.6297C26.7879 39.8062 26.1016 39.3091 25.6659 38.5949L25.6667 38.5941C26.6737 38.6436 27.9106 38.5886 29.5097 38.4154C30.4504 40.0432 31.9402 41.1045 33.4627 41.1045C31.8061 42.3293 31.791 43.8901 31.791 44.8253C31.791 44.8413 31.791 44.854 31.7918 44.87Z" fill="#E28536"></path> <path d="M17.7045 41.4939C17.7045 42.5305 17.3246 43.2941 16.4948 43.2941C15.3242 43.2941 14.9691 44.5612 14.9691 44.9123C14.9691 44.9283 14.9667 44.9435 14.9667 44.957C14.9555 44.882 14.95 44.8046 14.95 44.7288C14.95 43.8646 15.163 43.2351 15.5835 42.8584C15.9075 42.5672 16.3823 42.3916 16.9943 42.3382C17.4188 42.2999 17.7292 41.9272 17.6909 41.5051C17.6909 41.5011 17.6909 41.4995 17.6893 41.4955L17.7045 41.4939Z" fill="white"></path> <path d="M28.0897 37.6001C25.9879 37.6863 24.1582 37.1437 22.5224 35.9491C22.2902 35.7808 21.979 35.7552 21.7221 35.8861C21.4644 36.017 21.3016 36.2819 21.3016 36.5692V44.729C21.3016 45.5828 20.6082 46.2754 19.7544 46.2754H16.4963C15.7207 46.2754 15.0752 45.7017 14.9659 44.9572C14.9619 44.9285 14.9579 44.8981 14.9563 44.8686L14.9683 44.7633C15.3401 45.4383 16.8953 45.3929 17.7691 44.9739C20.4454 43.6916 20.4206 38.0509 20.4206 38.0509V37.395C20.4206 36.483 21.1587 35.7457 22.0716 35.7457C22.0716 35.7457 22.3613 35.8279 22.6988 35.9212C23.0363 36.0106 23.4209 36.1103 23.6069 36.143C25.3192 36.4407 26.6015 36.7152 27.6828 36.2292C27.7809 36.7056 27.919 37.1644 28.0897 37.6001Z" fill="#E28536"></path> <path d="M14.164 34.0179V35.6521C12.8737 35.7478 11.6361 36.6271 10.9547 37.2049C10.8429 37.2982 10.6969 37.4275 10.5381 37.5791C10.5086 37.5312 10.4823 37.4849 10.4496 37.4387C10.2437 37.1554 9.97159 36.9112 9.6548 36.7684C9.58378 36.7365 9.50479 36.7229 9.42419 36.7381C10.1735 35.3672 12.6998 34.3825 14.164 34.0179Z" fill="#FFC32D"></path> <path d="M39.7706 43.9727C39.7706 45.6715 38.5825 46.2764 37.467 46.2764H33.877C32.9953 46.2764 32.329 45.6125 32.329 44.7291C32.329 44.1259 32.329 43.3024 32.8397 42.514C33.9903 45.2805 39.1945 44.0477 38.924 37.7104C38.9472 37.8046 38.9799 37.8947 39.0238 37.9849C39.5305 38.9967 39.7706 40.1505 39.7706 43.9727Z" fill="#E28536"></path> <path d="M9.08108 37.127C9.0755 37.1038 9.06912 37.0807 9.06433 37.0575L9.08507 37.0783C9.08108 37.0942 9.07949 37.111 9.08108 37.127Z" fill="#FFC32D"></path> <path d="M9.40563 38.9422C9.40164 39.054 9.39366 39.1673 9.3785 39.2766C9.34818 39.4968 9.29232 39.7147 9.21332 39.9197C8.89654 40.7512 8.17519 41.4095 7.33416 41.6497C6.91523 41.7686 6.47237 41.7973 6.0343 41.7263C5.59862 41.6529 5.16853 41.4861 4.7903 41.2427C4.65624 41.1557 4.52777 41.0616 4.40808 40.9579L4.53894 40.4264C5.69278 41.755 9.53011 39.9963 9.13113 37.3719C9.19816 37.6041 9.25561 37.8076 9.29631 38.0134C9.34179 38.2321 9.3769 38.4491 9.39366 38.659C9.40164 38.7635 9.40962 38.8593 9.40563 38.9422Z" fill="#FFC32D"></path> <path d="M7.44608 42.3379C7.25777 42.1025 7.14446 41.8527 7.07025 41.6045C6.99844 41.3572 6.96811 41.1106 6.96572 40.8696C6.96093 40.3877 7.07663 39.9344 7.24739 39.5243C7.30884 39.3767 7.4788 39.3073 7.62562 39.3679C7.7517 39.4214 7.82112 39.5522 7.79957 39.6815L7.79798 39.6927C7.73733 40.0661 7.73813 40.4419 7.82511 40.7763C7.8674 40.943 7.92884 41.0994 8.00704 41.2335C8.08604 41.366 8.18419 41.4753 8.27675 41.5391C8.54246 41.7234 8.6079 42.0889 8.42357 42.3546C8.23924 42.6203 7.87378 42.6866 7.60807 42.5014C7.56179 42.4687 7.52029 42.4304 7.48598 42.3881L7.44608 42.3379Z" fill="#2D3448"></path> <path d="M4.73458 42.5733C4.68591 42.5175 4.64042 42.4568 4.59973 42.3954C4.56462 42.3372 4.54946 42.2933 4.52552 42.2406C4.50158 42.1879 4.48881 42.1433 4.47844 42.101L4.44652 41.9709C4.41859 41.8105 4.40662 41.6605 4.40583 41.5185C4.40423 41.2336 4.43216 40.9671 4.47844 40.7054C4.52472 40.4436 4.58776 40.1875 4.67314 39.9345C4.75932 39.6824 4.86465 39.4326 5.02424 39.194C5.11361 39.0616 5.29314 39.0265 5.4256 39.115C5.54131 39.1932 5.5828 39.3401 5.53173 39.4645L5.52615 39.4773C5.44874 39.6648 5.40087 39.8835 5.37294 40.1045C5.34421 40.3263 5.33384 40.5529 5.33943 40.7764C5.34421 40.999 5.36656 41.2224 5.40965 41.4235C5.43039 41.5248 5.45912 41.615 5.48944 41.6916L5.51418 41.7347C5.52136 41.7515 5.52854 41.7642 5.53492 41.7642C5.53971 41.765 5.54689 41.7794 5.54609 41.7706C5.5437 41.757 5.53572 41.7443 5.52535 41.7355C5.75675 41.9541 5.76713 42.3188 5.54929 42.5502C5.33065 42.7816 4.96599 42.7912 4.73458 42.5733Z" fill="#2D3448"></path> <path d="M15.4209 46.7461C15.3427 46.2985 15.3522 45.8404 15.4544 45.4088C15.5549 44.9763 15.7504 44.5765 16.0121 44.2446C16.1111 44.1185 16.293 44.0969 16.4183 44.1959C16.5252 44.2789 16.5571 44.4225 16.5045 44.5398L16.5021 44.547C16.2236 45.1766 16.2651 45.8676 16.5284 46.4309C16.6657 46.723 16.5396 47.0693 16.2483 47.2065C15.9563 47.343 15.6092 47.2177 15.4727 46.9265C15.4512 46.8786 15.4352 46.8299 15.4264 46.7812L15.4209 46.7461Z" fill="#2D3448"></path> <path d="M17.2354 46.7461C17.1572 46.2985 17.1676 45.8404 17.2689 45.4088C17.3695 44.9763 17.565 44.5765 17.8267 44.2446C17.9256 44.1185 18.1076 44.0969 18.2328 44.1959C18.3398 44.2789 18.3717 44.4225 18.319 44.5398L18.3166 44.547C18.0389 45.1766 18.0796 45.8676 18.343 46.4309C18.4802 46.723 18.3541 47.0693 18.0629 47.2065C17.7716 47.343 17.4245 47.2177 17.2873 46.9265C17.2657 46.8786 17.2506 46.8299 17.241 46.7812L17.2354 46.7461Z" fill="#2D3448"></path> <path d="M32.5563 46.7461C32.4788 46.2985 32.4884 45.8404 32.5898 45.4088C32.6903 44.9763 32.8858 44.5765 33.1475 44.2446C33.2465 44.1185 33.4284 44.0969 33.5545 44.1959C33.6606 44.2789 33.6925 44.4225 33.6407 44.5398L33.6375 44.547C33.3598 45.1766 33.4005 45.8676 33.6646 46.4309C33.801 46.723 33.675 47.0693 33.3837 47.2065C33.0925 47.343 32.7454 47.2177 32.6081 46.9265C32.5866 46.8786 32.5714 46.8299 32.5626 46.7812L32.5563 46.7461Z" fill="#2D3448"></path> <path d="M34.5732 46.7461C34.495 46.2985 34.5054 45.8404 34.6067 45.4088C34.7072 44.9763 34.9027 44.5765 35.1645 44.2446C35.2634 44.1185 35.4453 44.0969 35.5706 44.1959C35.6775 44.2789 35.7095 44.4225 35.6568 44.5398L35.6544 44.547C35.3759 45.1766 35.4174 45.8676 35.6807 46.4309C35.818 46.723 35.6919 47.0693 35.4007 47.2065C35.1094 47.343 34.7615 47.2177 34.625 46.9265C34.6035 46.8786 34.5883 46.8299 34.5788 46.7812L34.5732 46.7461Z" fill="#2D3448"></path> <path d="M26.4454 45.8369C26.3672 45.3893 26.3775 44.9313 26.4789 44.4996C26.5794 44.0671 26.7749 43.6673 27.0367 43.3354C27.1356 43.2093 27.3175 43.1878 27.4428 43.2867C27.5497 43.3697 27.5817 43.5133 27.529 43.6314L27.5266 43.6378C27.2481 44.2674 27.2896 44.9584 27.5529 45.5218C27.6902 45.8138 27.5641 46.1601 27.2728 46.2974C26.9816 46.4338 26.6337 46.3085 26.4972 46.0173C26.4757 45.9694 26.4605 45.9207 26.451 45.8721L26.4454 45.8369Z" fill="#2D3448"></path> <path d="M28.2649 45.8369C28.1875 45.3893 28.197 44.9313 28.2984 44.4996C28.3989 44.0671 28.5944 43.6673 28.8561 43.3354C28.9551 43.2093 29.137 43.1878 29.2631 43.2867C29.3692 43.3697 29.4011 43.5133 29.3493 43.6314L29.3461 43.6378C29.0684 44.2674 29.1091 44.9584 29.3732 45.5218C29.5097 45.8138 29.3836 46.1601 29.0923 46.2974C28.8011 46.4338 28.454 46.3085 28.3167 46.0173C28.2952 45.9694 28.28 45.9207 28.2713 45.8721L28.2649 45.8369Z" fill="#2D3448"></path> <path d="M39.1484 7.36094C39.1484 8.53153 40.0972 9.47949 41.267 9.47949C42.4376 9.47949 43.3855 8.53153 43.3855 7.36094C43.3855 6.02039 43.7311 4.71814 45.0772 3.53638C41.4577 2.59081 39.1484 4.42768 39.1484 7.36094Z" fill="#EE3338"></path> <path d="M49.9312 18.7106C49.2338 19.613 48.8157 20.6264 48.6521 21.8018C48.4973 20.9568 48.2763 20.0008 48.0193 19.5013C46.8903 22.0516 45.8633 22.3987 44.8419 22.4434C44.9592 21.2145 45.4755 20.1947 46.3253 19.538C47.0706 18.9643 48.0521 18.6723 49.1883 18.6723C49.4301 18.6723 49.6775 18.6842 49.9312 18.7106Z" fill="#FFC32D"></path> <path d="M38.681 7.35075C40.1732 7.19675 40.32 5.92881 42.113 4.94335C41.4204 6.50732 43.0402 7.67871 43.0402 7.67871L44.4031 4.55714L44.0137 3.15275L40.7804 3.67222L38.681 7.35075Z" fill="#FFC32D"></path> <path d="M38.3263 11.7444C38.3263 16.3901 37.0879 20.6479 34.9973 24.1629C31.4903 30.0605 25.5767 33.8604 19.075 33.8604H19.0734C10.1939 33.8604 2.99719 26.6605 2.99719 17.7817C2.99719 15.6951 3.39457 13.7018 4.11751 11.8729L5.05829 10.1892L6.1834 8.17521C9.11346 4.24691 13.7958 1.70545 19.0734 1.70545H20.4587H38.6894C34.7252 4.61397 30.1793 13.1624 33.5251 14.7639C35.3029 15.6145 37.3074 13.4185 38.3263 11.7444Z" fill="#EE3338"></path> <path d="M28.1885 12.357C27.8566 12.8621 27.3172 13.2722 26.745 13.4518C26.4554 13.5371 26.1801 13.5858 25.8753 13.6018C25.5681 13.6185 25.2377 13.5914 24.8499 13.5571L24.8172 13.5531C24.7119 13.5435 24.6041 13.5738 24.5196 13.6473C24.3743 13.7685 24.3352 13.968 24.4126 14.1316C24.4262 14.1643 24.4454 14.1947 24.4677 14.2234C24.7693 14.5825 25.1994 14.8354 25.6814 14.9647C25.9104 15.0277 26.1482 15.0524 26.3876 15.0485C25.829 21.3203 23.3849 24.5185 21.3772 26.108C19.7016 27.4366 17.9979 27.8906 16.8082 27.8906H16.8058C16.5608 27.8906 16.3358 27.8707 16.1379 27.8364C14.4678 27.5363 13.0148 26.874 11.8035 25.8822L11.8011 25.8798C9.13673 23.6934 7.63978 19.9135 7.55679 14.92C7.89672 14.8067 8.20392 14.6327 8.45129 14.3981C8.51113 14.3439 8.56859 14.2864 8.62045 14.2234C8.68589 14.142 8.72419 14.0367 8.71222 13.9241C8.69307 13.6991 8.49518 13.534 8.26936 13.5531L8.23824 13.5571C7.84884 13.5914 7.51849 13.6185 7.21287 13.6018C6.90806 13.5858 6.63356 13.5371 6.34391 13.4518C5.76939 13.2722 5.23157 12.8621 4.89803 12.357C4.60598 11.9133 4.4815 11.4242 4.54693 10.9534C4.58284 10.9286 4.62353 10.9063 4.67301 10.8824C4.81504 10.8193 4.99219 10.7738 5.17811 10.7499C5.55634 10.7028 5.97526 10.7347 6.37024 10.8409C6.76762 10.9438 7.14585 11.1226 7.45705 11.3747C7.76825 11.6237 8.00604 11.95 8.13052 12.3346L8.1345 12.3434C8.19196 12.5222 8.37469 12.6379 8.56699 12.6035C8.77605 12.5668 8.91569 12.3689 8.87979 12.1599C8.8375 11.9213 8.76009 11.6867 8.65636 11.4649V11.4625C8.52071 11.1752 8.33638 10.9063 8.11775 10.6781C7.73314 10.2687 7.25916 9.96313 6.75246 9.75168C6.35907 9.59049 5.94414 9.47958 5.51005 9.4317C5.54676 9.40297 5.58506 9.37425 5.62336 9.34552C5.87312 9.16838 6.1516 9.03033 6.41652 8.96091C6.54898 8.92022 6.67187 8.91144 6.78119 8.90346L6.99583 8.91543C7.06525 8.9282 7.13627 8.93219 7.20569 8.94814C7.75468 9.05667 8.29409 9.40297 8.79281 9.90169C9.29392 10.3988 9.75274 11.0061 10.2523 11.6468C10.5076 11.966 10.7725 12.2955 11.1101 12.6283C11.2832 12.7911 11.4811 12.9562 11.734 13.1055C11.8529 13.1765 11.9934 13.2419 12.1506 13.2922C12.2543 13.3456 12.3692 13.376 12.4945 13.376H13.0203V15.2543C13.0203 15.2807 13.0227 15.3054 13.0243 15.3309C13.0626 15.7187 13.389 16.022 13.7888 16.022C14.1877 16.022 14.5141 15.7187 14.5524 15.3309C14.5548 15.3054 14.5564 15.2807 14.5564 15.2543V13.376H15.6711V15.2543C15.6711 15.2807 15.6735 15.3054 15.6751 15.3309C15.7142 15.7187 16.0422 16.022 16.4395 16.022C16.8385 16.022 17.1657 15.7187 17.2032 15.3309C17.2056 15.3054 17.2072 15.2807 17.2072 15.2543V13.376H18.5302V15.2543C18.5302 15.2807 18.5318 15.3054 18.5342 15.3309C18.5725 15.7187 18.8988 16.022 19.2978 16.022C19.6976 16.022 20.0239 15.7187 20.0622 15.3309C20.0638 15.3054 20.0662 15.2807 20.0662 15.2543V13.376H20.387C20.7668 13.3839 21.1067 13.2515 21.3541 13.1055C21.6079 12.9562 21.8034 12.7911 21.9781 12.6283C22.3164 12.2955 22.5813 11.966 22.8359 11.6468C23.3354 11.0061 23.7942 10.3988 24.2953 9.90169C24.7925 9.40297 25.3335 9.05667 25.8833 8.94814C25.9519 8.93219 26.0229 8.9282 26.0923 8.91543L26.3054 8.90346C26.4163 8.91144 26.54 8.92022 26.6724 8.96091C26.935 9.03033 27.215 9.16838 27.4632 9.34552C27.5031 9.37425 27.5398 9.40297 27.5781 9.4317C27.1424 9.47958 26.7299 9.59049 26.3357 9.75168C25.829 9.96313 25.355 10.2687 24.9688 10.6781C24.8076 10.8457 24.6656 11.0404 24.5467 11.2454C24.3815 11.5295 24.265 11.8415 24.2092 12.1599C24.1764 12.3434 24.2834 12.5301 24.4677 12.5892C24.6696 12.657 24.8882 12.5453 24.9536 12.3434L24.956 12.3346C25.0805 11.95 25.3183 11.6237 25.6311 11.3747C25.9407 11.1226 26.3205 10.9438 26.7163 10.8409C27.1137 10.7347 27.5318 10.7028 27.9084 10.7499C28.0968 10.7738 28.2731 10.8193 28.4151 10.8824C28.463 10.9063 28.5037 10.9286 28.5396 10.9534C28.6067 11.4242 28.4822 11.9133 28.1885 12.357Z" fill="#F5D394"></path> <path d="M15.0841 25.6032C15.3267 25.9854 15.677 26.5137 16.8404 26.5137C17.8019 26.5137 19.1592 26.1857 19.6508 25.0343C20.0761 24.0352 18.9182 24.3672 18.789 24.5555C18.5273 24.9369 17.9831 25.525 17.9831 25.525L16.1159 25.5378L15.0841 25.6032Z" fill="white"></path> <path d="M16.4397 20.2703C15.5452 20.2703 14.0906 21.5702 14.0906 22.2157C14.0906 22.6203 15.1495 22.6769 16.4397 22.6777C17.73 22.6769 18.7881 22.6203 18.7881 22.2157C18.7881 21.5702 17.3334 20.2703 16.4397 20.2703Z" fill="white"></path> <path d="M26.3867 15.0485C25.8282 21.3203 23.3841 24.5185 21.3764 26.108C19.7007 27.4366 17.9971 27.8906 16.8074 27.8906C22.8718 25.7513 25.0717 18.6121 24.411 14.1316C24.4254 14.1643 24.4437 14.1946 24.4669 14.2234C24.7685 14.5825 25.1986 14.8354 25.6806 14.9647C25.9088 15.0277 26.1474 15.0524 26.3867 15.0485Z" fill="#FFC32D"></path> <path d="M11.8013 25.8809C9.13694 23.6945 7.6392 19.9138 7.55701 14.921C7.89613 14.8077 8.20334 14.633 8.45151 14.3984C8.59673 17.3723 9.05795 22.5095 11.8013 25.8809Z" fill="white"></path> <path d="M43.2632 4.05695C42.3878 4.05695 41.6346 4.27958 41.0672 4.71845C40.3251 5.29137 39.9174 6.23056 39.9174 7.36205C39.9174 8.10653 40.523 8.71297 41.2683 8.71297C42.0128 8.71297 42.6185 8.10653 42.6185 7.36205C42.6185 6.07177 42.9257 4.99773 43.572 4.06573C43.4675 4.06014 43.3645 4.05695 43.2632 4.05695ZM41.2683 10.249C39.6764 10.249 38.3813 8.95395 38.3813 7.36205C38.3813 5.74301 39.0014 4.37294 40.1281 3.50317C41.4088 2.51372 43.2353 2.26236 45.2724 2.7946C45.5469 2.86641 45.7592 3.08345 45.8246 3.36034C45.89 3.63723 45.7983 3.92688 45.5844 4.1144C44.5822 4.99534 44.1545 5.96644 44.1545 7.36205C44.1545 8.95395 42.8594 10.249 41.2683 10.249Z" fill="#2D3448"></path> <path d="M39.1198 1.46522C39.0169 1.14923 38.7216 0.936981 38.3897 0.936981H18.7753C18.7721 0.936981 18.7698 0.937777 18.7674 0.937777C13.4004 0.94017 8.48102 3.41062 5.27007 7.71554C5.01633 8.05627 5.08655 8.53663 5.42567 8.79038C5.56372 8.89411 5.7249 8.94279 5.88449 8.94279C6.11909 8.94279 6.35049 8.83587 6.50051 8.63398C9.421 4.71845 13.8951 2.47303 18.7745 2.47303H18.7825H36.3661C33.6044 5.31053 31.0358 10.0041 31.3159 12.9916C31.4539 14.4702 32.2503 15.1468 32.8942 15.4556C34.3593 16.1562 35.8953 15.3782 37.1449 14.1247C36.1155 24.7789 28.2701 33.0911 18.7753 33.0911C18.7729 33.0911 18.7706 33.0919 18.7682 33.0919C10.3299 33.0879 3.46592 26.2215 3.46592 17.7817C3.46592 15.8387 3.82579 13.9451 4.53357 12.1545C4.68997 11.7603 4.49607 11.3143 4.10188 11.1579C3.70769 11.0023 3.26164 11.1954 3.10524 11.5896C2.32565 13.5605 1.93066 15.6448 1.93066 17.7817C1.93066 27.0706 9.48643 34.6279 18.7745 34.6279C18.7785 34.6279 18.7817 34.6271 18.7857 34.6271C29.8197 34.6207 38.795 24.3567 38.795 11.7428C38.795 11.3989 38.566 11.0964 38.2349 11.0039C37.9029 10.9105 37.5503 11.0502 37.3715 11.3438C36.5089 12.7602 34.7806 14.6561 33.5573 14.0704C33.2884 13.9419 32.9222 13.6754 32.8448 12.8487C32.5942 10.1708 35.79 4.56445 38.8437 2.32381C39.1118 2.12752 39.2228 1.78121 39.1198 1.46522Z" fill="#2D3448"></path> <path d="M37.1451 14.1227C35.8963 15.3755 34.3595 16.1543 32.8944 15.4537C32.2505 15.1449 31.4541 14.4682 31.3161 12.9896C31.0631 10.2878 33.1386 6.19269 35.5803 3.33444H20.7066L20.7058 3.33524C19.3453 3.33524 18.0247 3.506 16.7631 3.82438C14.5823 5.71631 14.0054 7.91945 14.0908 8.92406C15.0842 6.95951 19.2208 3.67676 22.2522 4.75957C19.7434 6.12406 18.7891 9.65179 16.9283 10.6947C19.3876 10.6947 21.0066 10.2862 22.1525 9.79782C22.4333 9.42757 22.7357 9.05333 23.0853 8.69665C23.3972 8.38066 23.7491 8.07664 24.1585 7.81811C24.5662 7.56037 25.0386 7.35211 25.5429 7.25236C25.669 7.22603 25.7967 7.21326 25.9236 7.19491C26.0512 7.18613 26.1789 7.18135 26.3066 7.17656C26.593 7.18533 26.8683 7.22204 27.1181 7.29306C27.6224 7.4319 28.0644 7.65931 28.4626 7.94259C28.8584 8.22745 29.2079 8.57456 29.4984 8.97752C29.7864 9.38049 30.013 9.84569 30.1327 10.3516C30.2532 10.8559 30.2628 11.4009 30.1455 11.9068C30.0298 12.4127 29.808 12.8771 29.5207 13.2793C29.1106 13.8482 28.5775 14.3054 27.9615 14.6206C27.9208 15.1967 27.8642 15.7473 27.7955 16.2795C27.94 17.052 28.1881 17.7805 28.5831 18.3159C29.3938 15.7138 30.4 14.2982 30.9203 13.6527C30.353 20.377 31.5267 21.9944 29.1345 25.9746C31.1876 25.2445 33.1035 21.9218 33.6852 20.152C34.1281 21.704 34.0028 23.0166 33.8887 24.0172C35.637 21.155 36.7924 17.7773 37.1451 14.1227Z" fill="#FFC32D"></path> <path d="M28.1882 12.358C27.8554 12.8623 27.3168 13.2741 26.7439 13.4528C26.4542 13.5382 26.1797 13.5869 25.8749 13.6036C25.5677 13.6188 25.2374 13.5925 24.8488 13.5574L24.816 13.5542C24.7123 13.5454 24.6046 13.5757 24.5184 13.6483C24.3453 13.7935 24.3229 14.0505 24.4673 14.2236C24.769 14.5835 25.1983 14.8365 25.6802 14.9665C25.9084 15.028 26.1478 15.0535 26.3864 15.0495C25.8278 21.3206 23.3837 24.5196 21.3769 26.1099C19.3525 27.7137 17.289 28.0425 16.1368 27.8366C10.7881 26.8823 7.67692 22.1832 7.55643 14.921C7.97615 14.7814 8.34879 14.546 8.6185 14.2236C8.68553 14.1438 8.72223 14.0369 8.71266 13.9252C8.69191 13.7002 8.49402 13.535 8.269 13.5542L8.23788 13.5574C7.84848 13.5925 7.51813 13.6188 7.21172 13.6036C6.9069 13.5869 6.63161 13.5382 6.34275 13.4528C5.76903 13.2741 5.23041 12.8623 4.89847 12.358C4.60562 11.9144 4.48034 11.4252 4.54657 10.9552C4.58248 10.9305 4.62318 10.9066 4.67265 10.8842C4.81389 10.8212 4.99023 10.7749 5.17855 10.751C5.55598 10.7031 5.9741 10.7366 6.36988 10.8411C6.76646 10.9449 7.14549 11.1228 7.45669 11.375C7.76789 11.6247 8.00648 11.9511 8.13096 12.3357L8.13415 12.3445C8.1916 12.524 8.37433 12.6381 8.56504 12.6046C8.7741 12.5687 8.91454 12.3692 8.87863 12.1601C8.78288 11.6096 8.5028 11.0837 8.11739 10.6784C7.73198 10.269 7.258 9.96419 6.75051 9.75353C6.35792 9.59155 5.94458 9.48064 5.5089 9.43276C5.5464 9.40403 5.58391 9.37451 5.62301 9.34738C5.87276 9.16944 6.15125 9.03219 6.41537 8.96117C6.54783 8.92127 6.67071 8.9125 6.78083 8.90532L6.99468 8.91649C7.0641 8.92926 7.13512 8.93404 7.20374 8.9492C7.75432 9.05852 8.29374 9.40483 8.79165 9.90275C9.29277 10.3999 9.75239 11.0071 10.2511 11.6471C10.5056 11.967 10.7706 12.2974 11.1097 12.6277C11.2821 12.7929 11.4807 12.9581 11.7321 13.1065C11.8518 13.1767 11.993 13.2438 12.1494 13.294C12.2532 13.3459 12.3689 13.3786 12.4933 13.3786H13.02V15.2546C13.02 15.6783 13.3639 16.023 13.7884 16.023C14.2121 16.023 14.556 15.6783 14.556 15.2546V13.3786H15.6716V15.2546C15.6716 15.6783 16.0155 16.023 16.44 16.023C16.8637 16.023 17.2076 15.6783 17.2076 15.2546V13.3786H18.5298V15.2546C18.5298 15.6783 18.8737 16.023 19.2982 16.023C19.7219 16.023 20.0659 15.6783 20.0659 15.2546V13.3786H20.3866C20.7665 13.385 21.1056 13.2525 21.3537 13.1065C21.6059 12.9581 21.8038 12.7929 21.9769 12.6277C22.3153 12.2974 22.5802 11.967 22.8355 11.6471C23.3343 11.0071 23.7939 10.3999 24.2942 9.90275C24.7929 9.40483 25.3323 9.05852 25.8821 8.9492C25.9515 8.93404 26.0225 8.92926 26.092 8.91649L26.305 8.90532C26.4159 8.9125 26.538 8.92127 26.6713 8.96117C26.9346 9.03219 27.2139 9.16944 27.4628 9.34738C27.5027 9.37451 27.5394 9.40403 27.5769 9.43276C27.1421 9.48064 26.7279 9.59155 26.3353 9.75353C25.8286 9.96419 25.3547 10.269 24.9692 10.6784C24.5838 11.0837 24.3038 11.6096 24.208 12.1601C24.1753 12.3453 24.283 12.5312 24.4673 12.591C24.67 12.6573 24.8871 12.5464 24.9525 12.3445L24.9557 12.3357C25.0802 11.9511 25.3188 11.6247 25.63 11.375C25.9412 11.1228 26.3194 10.9449 26.716 10.8411C27.1117 10.7366 27.5307 10.7031 27.9081 10.751C28.0956 10.7749 28.272 10.8212 28.414 10.8842C28.4627 10.9066 28.5034 10.9305 28.5393 10.9552C28.6063 11.4252 28.481 11.9144 28.1882 12.358ZM30.1328 10.3528C30.0131 9.84689 29.7865 9.38169 29.4976 8.97873C29.208 8.57576 28.8584 8.22866 28.4619 7.94379C28.0645 7.66052 27.6224 7.4331 27.1181 7.29426C26.8684 7.22244 26.5923 7.18653 26.3066 7.17776C26.1781 7.18255 26.0513 7.18733 25.9236 7.19611C25.7967 7.21446 25.6683 7.22723 25.543 7.25356C25.0379 7.35331 24.5663 7.56157 24.1585 7.81931C23.7492 8.07784 23.3965 8.38186 23.0845 8.69785C22.4629 9.33302 21.9881 10.0216 21.5237 10.6464C21.2955 10.9592 21.0689 11.2577 20.8471 11.4923C20.7377 11.6072 20.6308 11.7021 20.5438 11.762C20.4553 11.8234 20.4074 11.8378 20.3866 11.8426H12.7C12.6793 11.8378 12.6314 11.8234 12.542 11.762C12.455 11.7021 12.3489 11.6072 12.2388 11.4923C12.017 11.2577 11.7911 10.9592 11.5629 10.6464C11.0985 10.0216 10.6229 9.33302 10.0013 8.69785C9.68935 8.38186 9.33745 8.07784 8.92811 7.81931C8.52035 7.56157 8.04797 7.35331 7.54287 7.25356C7.41759 7.22723 7.28992 7.21446 7.16225 7.19611C7.03537 7.18733 6.9077 7.18255 6.78003 7.17776C6.49357 7.18653 6.21827 7.22244 5.96852 7.29426C5.46421 7.4331 5.02215 7.66052 4.62397 7.94379C4.22819 8.22866 3.87869 8.57576 3.58824 8.97873C3.30018 9.38169 3.07276 9.84689 2.95307 10.3528C2.83338 10.8571 2.8238 11.4021 2.9411 11.908C3.05681 12.4139 3.27863 12.8783 3.5651 13.2805C4.14281 14.0808 4.95911 14.6657 5.91346 14.9346C5.94857 14.9442 5.98527 14.953 6.02118 14.9617C6.08901 19.0169 7.01862 22.3459 8.79006 24.8571C10.4953 27.2733 12.9426 28.8269 15.8671 29.3487C16.1503 29.399 16.4663 29.4277 16.8078 29.4277C18.3239 29.4277 20.3547 28.8787 22.3304 27.314C24.6373 25.4859 27.4588 21.8057 27.9608 14.6218C28.5768 14.3058 29.1098 13.8494 29.5207 13.2805C29.8072 12.8783 30.0298 12.4139 30.1447 11.908C30.262 11.4021 30.2533 10.8571 30.1328 10.3528Z" fill="#2D3448"></path> <path d="M19.3866 24.3803C19.2701 24.1991 18.9724 24.1217 18.8479 24.2638C18.2208 24.9779 17.6079 24.9843 17.2241 24.8798C16.9839 24.8144 16.8236 24.5893 16.8236 24.3404V24.0348L17.8401 23.1554L18.6947 22.4141C18.8831 22.2514 18.7674 21.9418 18.5184 21.9418H16.4397H14.3603C14.1113 21.9418 13.9956 22.2514 14.1839 22.4141L15.0385 23.1554L16.0551 24.0348V24.5654C16.0551 24.6843 16.0168 24.8048 15.9306 24.887C15.6386 25.1599 15.1024 24.9357 15.0154 25.2899C14.9779 25.4431 15.0513 25.6051 15.1782 25.7001C15.5309 25.9674 15.8844 26.0568 16.2379 26.0895C16.411 26.1038 16.585 26.0951 16.7589 26.0943L17.019 26.0855L17.1491 26.0791L17.3023 26.0687C17.7149 26.0312 18.1306 25.9323 18.524 25.7224C18.7203 25.6187 18.907 25.4814 19.0706 25.3099C19.2342 25.1407 19.369 24.9285 19.4336 24.6963C19.4624 24.5941 19.4488 24.4776 19.3866 24.3803Z" fill="#2D3448"></path> <path d="M22.6678 20.2855C22.5856 19.7572 22.387 19.6016 21.8284 19.6711C21.7606 19.679 21.6951 19.6958 21.6297 19.715C21.6281 19.7157 21.6257 19.7165 21.6241 19.7173C21.2052 19.845 20.8341 20.1905 20.5772 20.568C20.3737 20.8664 20.1998 21.3531 20.424 21.6013C20.641 21.8407 21.3153 21.5335 21.7797 21.3779C22.1228 21.263 22.7987 21.1329 22.6678 20.2855Z" fill="white"></path> <path d="M21.1687 19.9477C21.2381 20.4767 21.7241 20.8502 22.2539 20.7808C22.783 20.7105 23.1564 20.2254 23.0862 19.6955C23.0168 19.1665 22.5316 18.7931 22.0018 18.8633C21.4719 18.9327 21.0993 19.4179 21.1687 19.9477Z" fill="#FFC32D"></path> <path d="M22.002 18.8625C20.995 18.9942 20.3782 20.9587 20.7189 21.1598C20.9455 21.2939 20.6064 20.997 22.2542 20.78" fill="#FFC32D"></path> <path d="M23.0862 20.0835C23.0774 19.5497 22.5308 19.181 22.0017 19.2513C21.8541 19.2696 21.7209 19.3247 21.6036 19.4005C20.8024 19.8856 20.3564 21.0642 20.65 21.2382C20.8766 21.3722 21.1655 20.8855 22.127 20.998C22.6872 21.0642 23.0957 20.6573 23.0862 20.0835Z" fill="#2D3448"></path> <path d="M10.2131 20.2855C10.2945 19.7572 10.4931 19.6016 11.0525 19.6711C11.1195 19.679 11.1858 19.6958 11.2512 19.715C11.2528 19.7157 11.2544 19.7165 11.256 19.7173C11.6757 19.845 12.0468 20.1905 12.3037 20.568C12.5072 20.8664 12.6811 21.3531 12.4569 21.6013C12.2399 21.8407 11.5656 21.5335 11.1004 21.3779C10.7573 21.263 10.0814 21.1329 10.2131 20.2855Z" fill="white"></path> <path d="M11.7099 19.9477C11.6405 20.4767 11.1545 20.8502 10.6247 20.7808C10.0956 20.7105 9.7222 20.2254 9.79242 19.6955C9.86184 19.1665 10.347 18.7931 10.8768 18.8633C11.4067 18.9327 11.7793 19.4179 11.7099 19.9477Z" fill="#FFC32D"></path> <path d="M10.8781 18.8625C11.8851 18.9942 12.502 20.9587 12.162 21.1598C11.9346 21.2939 12.2737 20.997 10.626 20.78" fill="#FFC32D"></path> <path d="M9.79387 20.0835C9.80264 19.5497 10.3492 19.181 10.8783 19.2513C11.0259 19.2696 11.1592 19.3247 11.2765 19.4005C12.0776 19.8856 12.5236 21.0642 12.23 21.2382C12.0034 21.3722 11.7145 20.8855 10.753 20.998C10.1928 21.0642 9.78429 20.6573 9.79387 20.0835Z" fill="#2D3448"></path> <path d="M19.743 30.9903C20.1069 30.9632 20.4309 30.8945 20.758 30.8036C20.92 30.7653 21.0812 30.7022 21.24 30.6591L21.7148 30.4948C22.342 30.2666 22.9532 30.0032 23.5477 29.7128C24.1413 29.4223 24.719 29.1063 25.2704 28.7433C25.8234 28.3778 26.3445 27.9717 26.832 27.4402C26.7027 28.16 26.2663 28.8047 25.754 29.3226C25.2337 29.8436 24.6201 30.2586 23.9666 30.5762C23.3123 30.8937 22.6157 31.1188 21.8943 31.2257C21.7124 31.2448 21.5328 31.2696 21.3501 31.2768C21.165 31.2784 20.9846 31.2887 20.8003 31.2712C20.616 31.2512 20.4349 31.2385 20.2545 31.185C20.1644 31.1587 20.0766 31.1467 19.9904 31.106C19.905 31.0669 19.822 31.0318 19.743 30.9903Z" fill="#FFC32D"></path> <path d="M32.3269 5.41555C32.3269 6.14487 31.7357 6.73535 31.0071 6.73535C30.2778 6.73535 29.6865 6.14487 29.6865 5.41555C29.6865 4.68622 30.2778 4.09574 31.0071 4.09574C31.7357 4.09574 32.3269 4.68622 32.3269 5.41555Z" fill="white"></path> <path d="M12.5973 15.333H13.0282C13.0258 15.3075 13.0202 15.2827 13.0202 15.2556V13.3804H12.4928C12.3683 13.3804 12.2526 13.3477 12.1489 13.295C11.9933 13.2456 11.852 13.1785 11.7324 13.1083C11.4802 12.9591 11.2823 12.7939 11.1092 12.6288C10.7708 12.2984 10.5059 11.9681 10.2506 11.6489C9.75264 11.0081 9.29223 10.4009 8.79191 9.90377C8.2932 9.40585 7.75378 9.06034 7.204 8.95022C7.13458 8.93506 7.06356 8.93107 6.99493 8.91751L6.78108 8.90634C6.67017 8.91352 6.54808 8.92309 6.41483 8.96299C6.1515 9.03321 5.87222 9.17046 5.62326 9.3484C5.58336 9.37553 5.54666 9.40505 5.50916 9.43378C5.94404 9.48166 6.35817 9.59337 6.75076 9.75535C7.25746 9.96521 7.73144 10.27 8.11685 10.6794C8.33389 10.9084 8.51662 11.1757 8.65227 11.463C10.379 12.7437 11.3645 15.333 12.5973 15.333Z" fill="white"></path> <path d="M14.5572 13.3795V15.2554C14.5572 15.2818 14.5524 15.3065 14.5492 15.332H15.6807C15.6783 15.3065 15.6727 15.2818 15.6727 15.2554V13.3795H14.5572Z" fill="white"></path> <path d="M24.5452 11.2497C24.6641 11.0431 24.8069 10.85 24.9697 10.6784C25.3543 10.2691 25.8283 9.96503 26.3358 9.75438C26.7284 9.59239 27.1417 9.48068 27.5774 9.4336C27.5391 9.40408 27.5024 9.37455 27.4633 9.34742C27.2135 9.17028 26.9351 9.03303 26.6709 8.96201C26.5385 8.92212 26.4156 8.91254 26.3047 8.90536L26.0916 8.91653C26.0222 8.9301 25.9512 8.93488 25.8826 8.94925C25.332 9.05936 24.7926 9.40488 24.2947 9.90359C23.7935 10.4007 23.3339 11.0072 22.8352 11.6479C22.5807 11.9671 22.3157 12.2974 21.9766 12.6286C21.8035 12.7938 21.6056 12.9589 21.3534 13.1074C21.1053 13.2534 20.7669 13.3858 20.3863 13.3795H20.0663V15.2554C20.0663 15.2818 20.0607 15.3065 20.0583 15.332H20.2834H20.2842C21.5904 15.332 22.6182 12.4251 24.5452 11.2497Z" fill="white"></path> <path d="M17.2071 13.3795V15.2554C17.2071 15.2818 17.2023 15.3065 17.2 15.332H18.5373C18.5349 15.3065 18.5301 15.2818 18.5301 15.2554V13.3795H17.2071Z" fill="white"></path> <path d="M8.54805 12.6073V12.6065C8.36373 12.6296 8.19057 12.5187 8.13472 12.3456L8.13153 12.336C8.00705 11.9522 7.76846 11.6258 7.45726 11.3753C7.14686 11.1239 6.76783 10.9452 6.37046 10.8414C5.97467 10.7369 5.55655 10.7034 5.17912 10.7521C4.9908 10.7752 4.81446 10.8223 4.67322 10.8853C4.62455 10.9069 4.58385 10.9308 4.54714 10.9563C4.5256 11.1064 4.5264 11.2588 4.54315 11.4104C6.5867 10.9204 7.50594 12.8762 8.54805 12.6073Z" fill="#FFC32D"></path> <path d="M28.5394 10.9562C28.5035 10.9315 28.4628 10.9068 28.4133 10.8852C28.2721 10.8222 28.0957 10.7751 27.9074 10.752C27.53 10.7041 27.1119 10.7376 26.7161 10.8413C26.3195 10.9451 25.9405 11.1238 25.6301 11.3751C25.3181 11.6257 25.0803 11.9521 24.955 12.3359L24.9518 12.3455C24.8952 12.5218 24.722 12.6287 24.5441 12.6088C25.5838 12.8689 26.5038 10.9211 28.5434 11.4103C28.5601 11.2586 28.5609 11.1062 28.5394 10.9562Z" fill="#FFC32D"></path> <path d="M3.99578 13.7871C3.64708 15.0813 3.46594 16.4171 3.46594 17.7792C3.46594 21.1832 4.58387 24.3303 6.47022 26.875C5.29723 24.6447 4.62935 22.1073 4.62935 19.4118C4.62935 17.7784 4.87592 16.204 5.32835 14.7191C4.82804 14.4948 4.378 14.1789 3.99578 13.7871Z" fill="white"></path> <path d="M36.3671 2.47264H18.7827H18.7755C14.4905 2.47264 10.5192 4.20498 7.63696 7.27788C8.10616 7.38321 8.54582 7.57791 8.92884 7.81969C9.0597 7.90347 9.18339 7.99204 9.30308 8.08301C12.214 5.15135 16.2476 3.33761 20.7066 3.33761L20.7073 3.33681H35.5811C35.8396 3.03359 36.1022 2.74474 36.3671 2.47264Z" fill="white"></path> <path d="M30.7939 44.73C30.7939 44.754 30.7963 44.7787 30.7971 44.8026C30.6606 45.0157 30.2808 45.1888 29.9145 45.1888H27.7433C26.8911 45.1888 26.1977 44.4946 26.1977 43.6416C26.1977 42.0242 26.7084 41.7505 27.2486 41.4592C27.3396 41.4106 27.4273 41.3627 27.5087 41.3148C27.7034 41.1975 27.8367 41.0004 27.8726 40.7762C27.9085 40.552 27.8431 40.323 27.6939 40.1514C27.4345 39.8538 27.1752 39.4939 26.9254 39.1173C27.5526 39.1604 28.1982 39.1516 28.8604 39.0885C29.6009 40.2081 30.5888 41.0587 31.6836 41.4816C30.7939 42.712 30.7939 44.0159 30.7939 44.73ZM41.6867 29.253C41.6468 28.9873 41.6005 28.7168 41.543 28.4375C41.4393 27.9412 41.2941 27.4672 41.1129 27.0188C41.3826 27.3755 41.3826 27.3755 41.1129 27.0188C40.2168 24.7981 38.4255 23.2214 36.3053 22.7865C36.0683 23.274 35.817 23.752 35.5512 24.218C38.0424 24.4438 39.5928 26.6054 40.0389 28.7511C40.7395 32.1169 39.8825 34.3743 39.316 35.868C38.9768 36.7601 38.7327 37.4049 39.0231 37.985C39.5298 38.9952 39.7708 40.1498 39.7708 43.9736C39.7708 45.6716 38.581 46.2765 37.4671 46.2765H33.8763C32.9946 46.2765 32.3299 45.611 32.3299 44.73C32.3299 43.8946 32.3299 42.6322 33.6888 41.626C33.9553 41.4289 34.0655 41.0842 33.9617 40.769C33.8572 40.4546 33.5636 40.2416 33.2324 40.2416C31.3357 40.2416 29.49 38.1222 29.1182 35.5169C29.0583 35.098 28.6689 34.8052 28.2492 34.8658C27.8295 34.9256 27.5375 35.3142 27.5981 35.7348C27.6915 36.3891 27.8606 37.0155 28.0896 37.6012C25.9886 37.6865 24.1589 37.1431 22.5231 35.9502C22.2901 35.7802 21.9805 35.7555 21.7228 35.8864C21.4651 36.0172 21.3023 36.2814 21.3023 36.5702V44.73C21.3023 45.583 20.6089 46.2765 19.7559 46.2765H16.497C15.6432 46.2765 14.9498 45.583 14.9498 44.73C14.9498 43.8651 15.1629 43.2347 15.5818 42.858C15.9066 42.5684 16.3821 42.3928 16.995 42.3386C17.4171 42.3011 17.7291 41.9276 17.6916 41.5055C17.6541 41.0834 17.2806 40.7714 16.8585 40.8089C16.4364 40.8464 16.051 40.9294 15.7007 41.0539V34.3455C15.1804 34.249 14.6674 34.1301 14.1646 33.9865V35.6526C12.8736 35.7483 11.6352 36.6285 10.9545 37.2054C10.8436 37.2987 10.6968 37.4288 10.5388 37.5796C10.5092 37.5317 10.4813 37.4847 10.4486 37.4392C10.2443 37.1559 9.97223 36.9125 9.65464 36.7689C9.56847 36.7306 9.46713 36.7202 9.36978 36.7498C9.15353 36.8144 9.03145 37.041 9.09528 37.258L9.11204 37.3115C9.18864 37.5708 9.25168 37.7911 9.29557 38.0137C9.34105 38.2323 9.37536 38.4494 9.39372 38.6584C9.40169 38.763 9.40888 38.8603 9.40489 38.9425C9.4009 39.055 9.39451 39.1667 9.37776 39.2769C9.34664 39.4979 9.29158 39.7141 9.21258 39.9216C8.8958 40.7515 8.17445 41.4098 7.33501 41.65C6.91449 41.768 6.47163 41.7984 6.03436 41.7258C5.59788 41.6539 5.16858 41.4872 4.78956 41.2438C4.02831 40.757 3.48332 39.9623 3.40831 39.1444C3.40352 39.0933 3.39794 39.0415 3.39794 38.9904L3.39554 38.913L3.39873 38.8228C3.40591 38.7007 3.40272 38.5786 3.41629 38.4574C3.43065 38.3353 3.43863 38.2132 3.45778 38.0927L3.52242 37.7296C3.62296 37.2461 3.78813 36.7721 3.9964 36.3125C4.41692 35.394 5.03293 34.5442 5.75906 33.7973C6.4836 33.0473 7.32703 32.3993 8.2335 31.895C8.49124 31.7522 8.75536 31.6237 9.02267 31.5104C8.52714 31.1569 8.05237 30.7771 7.59833 30.3734C7.55125 30.3973 7.50258 30.4188 7.4555 30.4436C6.37428 31.0085 5.40078 31.741 4.5406 32.5964C3.68599 33.4566 2.9471 34.4533 2.41646 35.5832C2.15234 36.1473 1.94567 36.7474 1.8172 37.3698C1.78528 37.5254 1.76135 37.6834 1.73422 37.8397C1.71028 37.9969 1.69831 38.1573 1.68075 38.3161C1.664 38.4741 1.66559 38.6353 1.65841 38.7957L1.65442 38.9162L1.65841 39.0502C1.66001 39.1396 1.66878 39.229 1.67676 39.3183C1.74618 40.0341 2.01509 40.7148 2.4021 41.2885C2.79389 41.8614 3.30298 42.333 3.8767 42.6921C4.45202 43.0496 5.09836 43.2929 5.77662 43.3951C6.45487 43.4964 7.16585 43.4469 7.82495 43.2347C9.14954 42.815 10.2316 41.7585 10.6864 40.4618C10.7845 40.1825 10.8532 39.8929 10.8955 39.5992C10.9106 39.5577 10.9226 39.513 10.9298 39.4676C11.1867 38.9641 12.8632 37.3602 14.1646 37.1918V42.1495C13.6691 42.8014 13.4138 43.6648 13.4138 44.73C13.4138 46.4297 14.7966 47.8125 16.497 47.8125H19.7559C21.4555 47.8125 22.8383 46.4297 22.8383 44.73V37.9602C23.5014 38.3145 24.1956 38.5882 24.9186 38.7837C24.9353 38.8276 24.9545 38.8699 24.9792 38.9114C25.2809 39.4053 25.616 39.9447 25.9727 40.4419C25.2713 40.9478 24.6616 41.7784 24.6616 43.6416C24.6616 45.3421 26.0437 46.7241 27.7433 46.7241H29.9145C30.3582 46.7241 30.8402 46.6068 31.2607 46.377C31.8009 47.2444 32.7592 47.8125 33.8763 47.8125H37.4671C39.7277 47.8125 41.3068 46.2342 41.3068 43.9736C41.3068 40.3158 41.1018 38.7454 40.4331 37.3706C40.4554 37.1926 40.619 36.7633 40.7515 36.413C41.3005 34.9679 42.1886 32.618 41.6867 29.253Z" fill="#2D3448"></path> <path d="M48.5747 22.9928C48.5747 24.0294 47.732 24.872 46.6955 24.872C45.6598 24.872 44.8163 24.0294 44.8163 22.9928C44.8163 21.5174 45.3525 20.291 46.3276 19.5385C47.0713 18.964 48.0528 18.672 49.1891 18.672C49.4301 18.672 49.6782 18.6855 49.9328 18.7119C49.0111 19.9064 48.5747 21.2964 48.5747 22.9928ZM52.2029 18.0376C52.1375 17.7607 51.9252 17.5437 51.6499 17.4718C49.1643 16.8223 46.9405 17.1247 45.3885 18.3233C44.0295 19.3734 43.2803 21.0315 43.2803 22.9928C43.2803 24.3342 44.0599 25.4936 45.1866 26.0522C45.0533 26.7847 45.0533 26.7847 45.1866 26.0522C45.6398 26.2756 46.1465 26.4057 46.6843 26.4073C46.6883 26.4073 46.6923 26.4081 46.6955 26.4081C48.5786 26.4081 50.1107 24.876 50.1107 22.9928C50.1107 21.2126 50.682 19.9168 51.9627 18.7909C52.1766 18.6041 52.2684 18.3145 52.2029 18.0376Z" fill="#2D3448"></path> <path d="M45.1866 26.0501C44.9919 27.1161 44.0583 27.9276 42.9371 27.9276C42.219 27.9276 41.5439 27.5869 41.113 27.0156C41.2942 27.464 41.4394 27.938 41.5431 28.4343C41.6006 28.7136 41.6469 28.9849 41.6868 29.2506C42.0841 29.3887 42.5063 29.4629 42.9371 29.4629C44.7836 29.4629 46.3284 28.1479 46.6843 26.4052C46.1465 26.4036 45.639 26.2735 45.1866 26.0501Z" fill="#F5D394"></path> </svg> 